<svg width="73" height="20" viewBox="0 0 73 20" fill="none" xmlns="http://www.w3.org/2000/svg">
<path d="M60.0919 0.369995L63.9589 7.44293L67.8883 0.369995H72.6659L66.8903 9.95026L72.7657 19.5305H68.013L63.9589 12.6322L59.9422 19.5305H55.1521L60.99 9.95026L55.3018 0.369995H60.0919Z" fill="url(#paint0_linear_1_9741)"/>
<path d="M47.2394 11.4721V0.369995H51.755V19.5305H47.3766V16.125H47.177C46.7445 17.1978 46.0335 18.0752 45.0439 18.7571C44.0626 19.4391 42.8526 19.78 41.4139 19.78C40.1582 19.78 39.048 19.5014 38.0833 18.9442C37.1269 18.3787 36.3785 17.5596 35.8379 16.4868C35.2974 15.4057 35.0271 14.1 35.0271 12.5699V0.369995H39.5428V11.8713C39.5428 13.0855 39.8754 14.0502 40.5407 14.7653C41.206 15.4805 42.0792 15.8381 43.1603 15.8381C43.8256 15.8381 44.4701 15.676 45.0938 15.3516C45.7175 15.0273 46.2289 14.545 46.6281 13.9046C47.0356 13.256 47.2394 12.4451 47.2394 11.4721Z" fill="url(#paint1_linear_1_9741)"/>
<path d="M21.0974 19.5306V0.370016H25.4759V3.56344H25.6754C26.0247 2.45738 26.6235 1.60497 27.4717 1.00621C28.3283 0.399122 29.3054 0.0955811 30.4032 0.0955811C30.6527 0.0955811 30.9312 0.108054 31.2389 0.133002C31.555 0.149635 31.8169 0.178742 32.0248 0.220323V4.37427C31.8335 4.30774 31.53 4.24952 31.1142 4.19963C30.7067 4.14141 30.3117 4.11231 29.9292 4.11231C29.1059 4.11231 28.3657 4.29111 27.7087 4.6487C27.0601 4.99798 26.5486 5.48448 26.1744 6.1082C25.8002 6.73191 25.6131 7.45126 25.6131 8.26625V19.5306H21.0974Z" fill="url(#paint2_linear_1_9741)"/>
<path d="M9.18077 19.9044C7.26806 19.9044 5.62563 19.4844 4.25346 18.6445C2.88961 17.8046 1.83762 16.6444 1.09749 15.1642C0.365666 13.6756 -0.000244141 11.9624 -0.000244141 10.0247C-0.000244141 8.07876 0.373982 6.36146 1.12244 4.87286C1.87089 3.37594 2.92704 2.21167 4.29088 1.38005C5.66305 0.540116 7.2847 0.120148 9.15583 0.120148C10.7109 0.120148 12.0873 0.407057 13.2848 0.980875C14.4906 1.54638 15.4511 2.34889 16.1663 3.38842C16.8815 4.41963 17.289 5.62548 17.3888 7.00597H13.0727C12.8981 6.08287 12.4823 5.31362 11.8253 4.69822C11.1766 4.0745 10.3076 3.76265 9.2182 3.76265C8.29511 3.76265 7.48428 4.01213 6.78573 4.5111C6.08717 5.00176 5.54246 5.70864 5.15161 6.63174C4.76906 7.55484 4.57779 8.66089 4.57779 9.9499C4.57779 11.2555 4.76906 12.3782 5.15161 13.318C5.53415 14.2494 6.07054 14.9687 6.76078 15.476C7.45933 15.975 8.27847 16.2245 9.2182 16.2245C9.88349 16.2245 10.4781 16.0997 11.002 15.8503C11.5342 15.5924 11.9792 15.2224 12.3368 14.74C12.6943 14.2577 12.9397 13.6714 13.0727 12.9812H17.3888C17.2807 14.3367 16.8815 15.5384 16.1913 16.5862C15.501 17.6258 14.5613 18.4407 13.3721 19.0312C12.1829 19.6133 10.7858 19.9044 9.18077 19.9044Z" fill="url(#paint3_linear_1_9741)"/>
<defs>
<linearGradient id="paint0_linear_1_9741" x1="67.4606" y1="1.11981" x2="53.6623" y2="20.3472" gradientUnits="userSpaceOnUse">
<stop stop-color="#5E5ADB"/>
<stop offset="1" stop-color="#5E5ADB" stop-opacity="0.8"/>
</linearGradient>
<linearGradient id="paint1_linear_1_9741" x1="46.7167" y1="1.12957" x2="32.474" y2="19.7361" gradientUnits="userSpaceOnUse">
<stop stop-color="#5E5ADB"/>
<stop offset="1" stop-color="#5E5ADB" stop-opacity="0.8"/>
</linearGradient>
<linearGradient id="paint2_linear_1_9741" x1="28.7336" y1="0.856132" x2="14.1469" y2="13.2883" gradientUnits="userSpaceOnUse">
<stop stop-color="#5E5ADB"/>
<stop offset="1" stop-color="#5E5ADB" stop-opacity="0.8"/>
</linearGradient>
<linearGradient id="paint3_linear_1_9741" x1="12.1514" y1="0.894367" x2="-2.28901" y2="20.1337" gradientUnits="userSpaceOnUse">
<stop stop-color="#5E5ADB"/>
<stop offset="1" stop-color="#5E5ADB" stop-opacity="0.8"/>
</linearGradient>
</defs>
</svg>
